# xmcd CD database file
#
# Track frame offsets:
#	150
#	51706
#	72498
#	93865
#	116364
#	159470
#	178368
#	205009
#	230045
#	250165
#	276392
#	300537
#	326215
#
# Disc length: 4630 seconds
#
# Revision: 0
# Processed by: cddbd v1.5.2PL0 Copyright (c) Steve Scherf et al.
# Submitted via: CDex 1.51
#
DISCID=c412140d
DTITLE=Carla Olson and Mick Taylor - Too Hot For Snakes Plus CD 2
DYEAR=2008
DGENRE=Blues
TTITLE0=Winter
TTITLE1=Loserville
TTITLE2=The Ring Of Truth
TTITLE3=Friends In Baltimore
TTITLE4=Great Black Hole
TTITLE5=Kinderwars
TTITLE6=Reap The Whirlwind
TTITLE7=Justice
TTITLE8=Fortune
TTITLE9=Within An Ace
TTITLE10=World Of Pain
TTITLE11=Is The Lady Gone
TTITLE12=Think I`m Goin` Mad
EXTD=YEAR: 2008
EXTT0=
EXTT1=
EXTT2=
EXTT3=
EXTT4=
EXTT5=
EXTT6=
EXTT7=
EXTT8=
EXTT9=
EXTT10=
EXTT11=
EXTT12=
PLAYORDER=
